<svg id="Layer_1" data-name="Layer 1" xmlns="http://www.w3.org/2000/svg" xmlns:xlink="http://www.w3.org/1999/xlink" viewBox="0 0 312.99 84.28"><defs><style>.cls-1,.cls-27,.cls-4{fill:none;}.cls-2{fill:#fff;}.cls-3{fill:url(#linear-gradient);}.cls-27,.cls-4,.cls-5{stroke:#fff;stroke-miterlimit:10;}.cls-4,.cls-5{stroke-width:0.41px;}.cls-5{fill:url(#linear-gradient-2);}.cls-6{fill:url(#linear-gradient-3);}.cls-7{clip-path:url(#clip-path);}.cls-8{fill:url(#linear-gradient-4);}.cls-9{fill:url(#linear-gradient-5);}.cls-10{clip-path:url(#clip-path-2);}.cls-11{fill:url(#linear-gradient-6);}.cls-12{fill:url(#linear-gradient-7);}.cls-13{fill:url(#linear-gradient-8);}.cls-14{fill:url(#linear-gradient-9);}.cls-15{fill:url(#linear-gradient-10);}.cls-16{fill:url(#linear-gradient-11);}.cls-17{fill:url(#linear-gradient-12);}.cls-18{fill:url(#linear-gradient-13);}.cls-19{fill:url(#linear-gradient-14);}.cls-20{clip-path:url(#clip-path-3);}.cls-21{fill:url(#linear-gradient-16);}.cls-22{fill:url(#linear-gradient-17);}.cls-23{fill:url(#linear-gradient-18);}.cls-24{clip-path:url(#clip-path-4);}.cls-25{fill:url(#linear-gradient-19);}.cls-26{fill:url(#linear-gradient-20);}.cls-27{stroke-width:0.33px;}</style><linearGradient id="linear-gradient" x1="43.39" y1="-28.4" x2="39.87" y2="71.49" gradientTransform="matrix(1, 0, 0, -1, 4.21, 78.82)" gradientUnits="userSpaceOnUse"><stop offset="0" stop-color="#f49299"/><stop offset="0.19" stop-color="#f1767d"/><stop offset="0.4" stop-color="#ec5259"/><stop offset="0.46" stop-color="#db4957"/><stop offset="0.63" stop-color="#b03351"/><stop offset="0.78" stop-color="#91224d"/><stop offset="0.91" stop-color="#7e194a"/><stop offset="1" stop-color="#771549"/></linearGradient><linearGradient id="linear-gradient-2" x1="42.25" y1="5.43" x2="38.6" y2="108.94" xlink:href="#linear-gradient"/><linearGradient id="linear-gradient-3" x1="26.01" y1="10.11" x2="24.91" y2="41.12" xlink:href="#linear-gradient"/><clipPath id="clip-path" transform="translate(-0.05 -0.02)"><path class="cls-1" d="M30,37l0,14a2.41,2.41,0,0,1-1.08-1.93l0-14A2.41,2.41,0,0,0,30,37Z"/></clipPath><linearGradient id="linear-gradient-4" x1="26.33" y1="10.13" x2="25.24" y2="41.13" xlink:href="#linear-gradient"/><linearGradient id="linear-gradient-5" x1="25.81" y1="10.11" x2="24.71" y2="41.11" xlink:href="#linear-gradient"/><clipPath id="clip-path-2" transform="translate(-0.05 -0.02)"><path class="cls-1" d="M61.48,35.56a2.81,2.81,0,0,1-1.1,2.16l-6.14,5.47-6.93-5.75a3.53,3.53,0,0,0-4.27,0l-7,5.7-6-5.53a2.68,2.68,0,0,1,0-4.31L42.6,23.06a4.39,4.39,0,0,1,5.27,0L60.4,33.4A2.81,2.81,0,0,1,61.48,35.56Z"/></clipPath><linearGradient id="linear-gradient-6" x1="2342.12" y1="42.33" x2="2412.2" y2="42.33" gradientTransform="translate(2458.38 71.87) rotate(180) scale(1.02)" gradientUnits="userSpaceOnUse"><stop offset="0" stop-color="#fabfa2"/><stop offset="0.11" stop-color="#f59486"/><stop offset="0.22" stop-color="#f27370"/><stop offset="0.31" stop-color="#f05e63"/><stop offset="0.37" stop-color="#ef575e"/><stop offset="0.62" stop-color="#941a4b"/><stop offset="0.79" stop-color="#671448"/><stop offset="0.92" stop-color="#491047"/><stop offset="1" stop-color="#3e0f46"/></linearGradient><linearGradient id="linear-gradient-7" x1="2371.31" y1="36.29" x2="2404.44" y2="24.23" gradientTransform="translate(2458.38 71.87) rotate(180) scale(1.02)" gradientUnits="userSpaceOnUse"><stop offset="0" stop-color="#e14247"/><stop offset="0.05" stop-color="#c6384a"/><stop offset="0.12" stop-color="#a82d4d"/><stop offset="0.19" stop-color="#91254f"/><stop offset="0.27" stop-color="#811f51"/><stop offset="0.36" stop-color="#771b52"/><stop offset="0.47" stop-color="#741a52"/><stop offset="1" stop-color="#55144c"/></linearGradient><linearGradient id="linear-gradient-8" x1="2362.45" y1="42.64" x2="2413.41" y2="42.64" gradientTransform="translate(2458.38 71.87) rotate(180) scale(1.02)" gradientUnits="userSpaceOnUse"><stop offset="0" stop-color="#fabfa2"/><stop offset="0.11" stop-color="#f59486"/><stop offset="0.22" stop-color="#f27370"/><stop offset="0.31" stop-color="#f05e63"/><stop offset="0.37" stop-color="#ef575e"/><stop offset="0.71" stop-color="#941a4b"/><stop offset="1" stop-color="#4b1047"/></linearGradient><linearGradient id="linear-gradient-9" x1="2378.05" y1="40.81" x2="2401.07" y2="40.81" gradientTransform="translate(2458.38 71.87) rotate(180) scale(1.02)" gradientUnits="userSpaceOnUse"><stop offset="0" stop-color="#4b1047"/><stop offset="0.25" stop-color="#941a4b"/><stop offset="0.41" stop-color="#ae3150"/><stop offset="0.66" stop-color="#d25157"/><stop offset="0.87" stop-color="#e9655b"/><stop offset="1" stop-color="#f16c5d"/></linearGradient><linearGradient id="linear-gradient-10" x1="2378.25" y1="42.69" x2="2397.36" y2="42.69" gradientTransform="translate(2458.38 71.87) rotate(180) scale(1.02)" gradientUnits="userSpaceOnUse"><stop offset="0" stop-color="#f48b7a"/><stop offset="0.1" stop-color="#ef8377"/><stop offset="0.26" stop-color="#e06c6e"/><stop offset="0.46" stop-color="#c8485f"/><stop offset="0.65" stop-color="#ab1d4e"/><stop offset="0.75" stop-color="#a21d51"/><stop offset="0.91" stop-color="#8b1d57"/><stop offset="1" stop-color="#7c1d5c"/></linearGradient><linearGradient id="linear-gradient-11" x1="2343.26" y1="42.79" x2="2394.37" y2="42.79" gradientTransform="translate(2458.38 71.87) rotate(180) scale(1.02)" xlink:href="#linear-gradient"/><linearGradient id="linear-gradient-12" x1="2386.01" y1="34.51" x2="2394.31" y2="34.51" gradientTransform="translate(2458.38 71.87) rotate(180) scale(1.02)" gradientUnits="userSpaceOnUse"><stop offset="0" stop-color="#ef5559"/><stop offset="0.17" stop-color="#e75059"/><stop offset="0.45" stop-color="#d04257"/><stop offset="0.78" stop-color="#ac2c55"/><stop offset="1" stop-color="#911c54"/></linearGradient><linearGradient id="linear-gradient-13" x1="2378.25" y1="36.22" x2="2385.48" y2="36.22" xlink:href="#linear-gradient-12"/><linearGradient id="linear-gradient-14" x1="57.44" y1="11.23" x2="56.35" y2="42.23" xlink:href="#linear-gradient"/><clipPath id="clip-path-3" transform="translate(-0.05 -0.02)"><path class="cls-1" d="M61.49,35.23l0,14a2.41,2.41,0,0,1-1.1,1.92l0-14A2.41,2.41,0,0,0,61.49,35.23Z"/></clipPath><linearGradient id="linear-gradient-16" x1="32.61" y1="10.35" x2="31.52" y2="41.35" gradientTransform="matrix(1, 0, 0, -1, 4.16, 78.8)" xlink:href="#linear-gradient"/><linearGradient id="linear-gradient-17" x1="50.43" y1="10.98" x2="49.34" y2="41.98" gradientTransform="matrix(1, 0, 0, -1, 4.16, 78.8)" xlink:href="#linear-gradient"/><linearGradient id="linear-gradient-18" x1="41.35" y1="10.66" x2="40.26" y2="41.66" xlink:href="#linear-gradient"/><clipPath id="clip-path-4" transform="translate(-0.05 -0.02)"><path class="cls-1" d="M47.79,46.26l0,14a4.78,4.78,0,0,1-5.28,0l0-14A4.78,4.78,0,0,0,47.79,46.26Z"/></clipPath><linearGradient id="linear-gradient-19" x1="41.66" y1="10.67" x2="40.57" y2="41.67" xlink:href="#linear-gradient"/><linearGradient id="linear-gradient-20" x1="39.03" y1="10.58" x2="37.93" y2="41.58" xlink:href="#linear-gradient"/></defs><title>logo_white</title><g id="Layer_2" data-name="Layer 2"><g id="Layer_1-2" data-name="Layer 1-2"><path class="cls-2" d="M113.79,42.34l13.57-16.82h8.85l-14,17.58,14,17.86h-8.85L113.79,44.14V61h-7.47V25.52h7.47Z" transform="translate(-0.05 -0.02)"/><path class="cls-2" d="M140.33,25.51h20.33a9.65,9.65,0,0,1,4.56,1,9.06,9.06,0,0,1,3.08,2.62,10.82,10.82,0,0,1,1.76,3.69,16.16,16.16,0,0,1,.55,4.16,13.13,13.13,0,0,1-.52,3.67A13.32,13.32,0,0,1,168.64,44a10.79,10.79,0,0,1-2.25,2.62,8,8,0,0,1-2.91,1.57l10,12.8h-8.85l-14.9-18.62h10.94a1.39,1.39,0,0,0,1-.58,7.43,7.43,0,0,0,.91-1.37,9.31,9.31,0,0,0,.66-1.6,4.74,4.74,0,0,0,.25-1.28,10.42,10.42,0,0,0-.14-1.48,7.63,7.63,0,0,0-.47-1.72,4.46,4.46,0,0,0-.88-1.4,1.82,1.82,0,0,0-1.37-.58H147.8V60.94h-7.47Z" transform="translate(-0.05 -0.02)"/><path class="cls-2" d="M190.61,25.48h7.53l16.5,35.43h-8l-4.46-9.78H186.56l-4.28,9.78h-8ZM194.19,33l-5.27,11.82h11L194.46,33Z" transform="translate(-0.05 -0.02)"/><path class="cls-2" d="M239.08,25.46v6.23H228.53V60.91h-7.47V31.7H210.51V25.48Z" transform="translate(-0.05 -0.02)"/><path class="cls-2" d="M241.18,43.39a20.08,20.08,0,0,1,1.43-7.57,19.5,19.5,0,0,1,3.9-6.17,18.87,18.87,0,0,1,5.77-4.16,16.53,16.53,0,0,1,7.09-1.55,17.26,17.26,0,0,1,7.23,1.51,18.06,18.06,0,0,1,5.77,4.13,19,19,0,0,1,3.82,6.17,21,21,0,0,1,1.38,7.62,20.14,20.14,0,0,1-1.4,7.57A18.81,18.81,0,0,1,272.32,57a17.72,17.72,0,0,1-12.94,5.48A17.37,17.37,0,0,1,252.29,61a18.08,18.08,0,0,1-5.77-4,18.94,18.94,0,0,1-3.9-6A19.78,19.78,0,0,1,241.18,43.39Zm6.76,0a11.93,11.93,0,0,0,.91,4.63,12.1,12.1,0,0,0,2.45,3.78,11.92,11.92,0,0,0,3.6,2.56,10.21,10.21,0,0,0,4.37,1,11.3,11.3,0,0,0,4.48-.9A11.88,11.88,0,0,0,267.46,52a11.28,11.28,0,0,0,2.5-3.76,12.39,12.39,0,0,0,.9-4.8,12.87,12.87,0,0,0-3.3-8.61,11.55,11.55,0,0,0-3.63-2.68,10.52,10.52,0,0,0-4.56-1,10.27,10.27,0,0,0-4.45,1,11.35,11.35,0,0,0-3.63,2.71,13.54,13.54,0,0,0-2.44,3.93,12.15,12.15,0,0,0-.91,4.61Z" transform="translate(-0.05 -0.02)"/><path class="cls-2" d="M282.34,54.66h20.33a2.48,2.48,0,0,0,1.29-.38,4.24,4.24,0,0,0,1.13-1,5.66,5.66,0,0,0,.8-1.31,3.52,3.52,0,0,0,.3-1.4,5.1,5.1,0,0,0-1-3,3,3,0,0,0-2.56-1.37H291.19a8.55,8.55,0,0,1-3.85-.84,8.73,8.73,0,0,1-2.89-2.27,10.75,10.75,0,0,1-1.84-3.26,11.16,11.16,0,0,1-.66-3.81,11.38,11.38,0,0,1,.77-4.22,9.84,9.84,0,0,1,5.3-5.56,9.73,9.73,0,0,1,4-.82h20.61v6.23h-21a1.87,1.87,0,0,0-1.18.41,3.63,3.63,0,0,0-.91,1.08,5.6,5.6,0,0,0-.58,1.43,5.9,5.9,0,0,0-.19,1.46,3.65,3.65,0,0,0,.27,1.34,6,6,0,0,0,.69,1.28,4.38,4.38,0,0,0,.91,1,1.56,1.56,0,0,0,.93.38h11.82a8.65,8.65,0,0,1,3.9.87,10.19,10.19,0,0,1,3,2.3,10,10,0,0,1,2,3.32,11.58,11.58,0,0,1,.69,4,12.58,12.58,0,0,1-2.22,6.93,9.55,9.55,0,0,1-2.58,2.5,6,6,0,0,1-3.38,1H282.34Z" transform="translate(-0.05 -0.02)"/><path class="cls-3" d="M89.87,38.57l-.88,1-3.86,3.1L49.22,71.5a6.42,6.42,0,0,1-7.71,0L5.83,42.42,2,39.29l-.87-1c-.48-.57-.87,0-.88,2.75v7l.07.29.22.86,1.41,1.51,3.84,3.14,35.7,29a6.43,6.43,0,0,0,7.71,0L85.09,54,89,50.94l1.42-1.5.22-.86.07-.29c0-.32,0-2.81.06-5.54V41.32C90.74,38.6,90.35,38,89.87,38.57Z" transform="translate(-0.05 -0.02)"/><path class="cls-4" d="M89.87,38.57l-.88,1-3.86,3.1L49.22,71.5a6.42,6.42,0,0,1-7.71,0L5.83,42.42,2,39.29l-.87-1c-.48-.57-.87,0-.88,2.75v7l.07.29.22.86,1.41,1.51,3.84,3.14,35.7,29a6.43,6.43,0,0,0,7.71,0L85.09,54,89,50.94l1.42-1.5.22-.86.07-.29c0-.32,0-2.81.06-5.54V41.32C90.74,38.6,90.35,38,89.87,38.57Z" transform="translate(-0.05 -0.02)"/><path class="cls-5" d="M90.64,35.74A4.34,4.34,0,0,0,89,33.38h0L50.33,1.89a7.49,7.49,0,0,0-9.41,0L2,33H2A4.34,4.34,0,0,0,.36,35.42a3.58,3.58,0,0,0-.11.87h0V47.63A4.1,4.1,0,0,1,2,44.4H2L40.87,13.18a7.49,7.49,0,0,1,9.41,0L89,44.71h0A4.1,4.1,0,0,1,90.71,48V36.66h0A3.56,3.56,0,0,0,90.64,35.74Z" transform="translate(-0.05 -0.02)"/><path class="cls-6" d="M30,37l0,14a2.41,2.41,0,0,1-1.08-1.93l0-14A2.41,2.41,0,0,0,30,37Z" transform="translate(-0.05 -0.02)"/><g class="cls-7"><path class="cls-8" d="M30,37l0,14a3.21,3.21,0,0,1-.37-.32l0-14A3.21,3.21,0,0,0,30,37" transform="translate(-0.05 -0.02)"/><path class="cls-9" d="M29.61,36.73l0,14a2.27,2.27,0,0,1-.71-1.61l0-14a2.27,2.27,0,0,0,.71,1.61" transform="translate(-0.05 -0.02)"/></g><g class="cls-10"><polygon class="cls-11" points="10.51 19.13 27.41 35.94 29.89 38.4 29.89 38.4 46.17 54.62 62.26 38.34 81.64 18.84 65.48 2.77 46.15 22.22 26.68 2.87 10.51 19.13"/><polygon class="cls-12" points="37.48 46.73 43.65 32.28 44.98 21.83 28.73 38.03 37.48 46.73"/><polygon class="cls-13" points="61.06 37.92 41.88 18.75 9.38 18.79 26.25 35.56 28.71 38 61.06 37.92"/><polygon class="cls-14" points="45.02 54.23 21.77 6.26 28.73 38.03 45.02 54.23"/><polygon class="cls-15" points="45.06 54.18 44.98 21.83 25.54 2.48 45.06 54.18"/><polygon class="cls-16" points="61.13 37.92 80.48 18.46 28.75 38 61.13 37.92"/><polygon class="cls-17" points="37.15 37.99 35.85 35.32 28.73 38.02 37.15 37.99"/><polygon class="cls-18" points="45.02 37.96 45.01 31.87 37.67 34.63 38.95 37.98 45.02 37.96"/></g><path class="cls-19" d="M61.49,35.23l0,14a2.41,2.41,0,0,1-1.1,1.92l0-14A2.41,2.41,0,0,0,61.49,35.23Z" transform="translate(-0.05 -0.02)"/><g class="cls-20"><path class="cls-19" d="M61.49,35.23l0,14a2.41,2.41,0,0,1-1.1,1.92l0-14a2.41,2.41,0,0,0,1.1-1.92" transform="translate(-0.05 -0.02)"/></g><polygon class="cls-21" points="29.93 37.02 42.48 46.23 42.42 60.25 29.89 51.06 29.93 37.02"/><polygon class="cls-22" points="60.34 37.13 60.3 51.17 47.7 60.27 47.74 46.25 60.34 37.13"/><path class="cls-23" d="M47.79,46.26l0,14a4.78,4.78,0,0,1-5.28,0l0-14A4.78,4.78,0,0,0,47.79,46.26Z" transform="translate(-0.05 -0.02)"/><g class="cls-24"><path class="cls-25" d="M47.79,46.26l0,14a4.56,4.56,0,0,1-2.65.78,4.76,4.76,0,0,1-2-.43l0-14a4.76,4.76,0,0,0,2,.43,4.56,4.56,0,0,0,2.65-.78" transform="translate(-0.05 -0.02)"/><path class="cls-26" d="M43.14,46.61l0,14a3.92,3.92,0,0,1-.63-.37l0-14a3.92,3.92,0,0,0,.63.37" transform="translate(-0.05 -0.02)"/></g><path class="cls-27" d="M28.89,35.11s-.34.88,1.75,2.41L42,45.87A5.16,5.16,0,0,0,45.14,47s1.36.28,3.49-1.38,10.94-7.91,10.94-7.91,1.93-1.24,1.91-2.37-1-2-2.44-3.1L48.43,23.5A5,5,0,0,0,45,22.18,6.46,6.46,0,0,0,41.29,24c-.43.39-.87.78-1.32,1.15l-9.82,8A2.92,2.92,0,0,0,28.89,35.11Z" transform="translate(-0.05 -0.02)"/><path class="cls-27" d="M61.49,35.23l-.06,14.22c0,1.13-1.91,2.37-1.91,2.37s-8.81,6.25-10.94,7.91-3.49,1.38-3.49,1.38A5.16,5.16,0,0,1,42,59.94L30.59,51.59s-1.81-1.11-1.75-2.36v-14" transform="translate(-0.05 -0.02)"/><path class="cls-27" d="M37.11,42.28l5.07-4.16a4.05,4.05,0,0,1,5.72-.28l.28.28,4.91,4.08.11.09" transform="translate(-0.05 -0.02)"/><line class="cls-27" x1="45.09" y1="47.03" x2="45.05" y2="61.06"/><line class="cls-27" x1="45.18" y1="22.16" x2="45.12" y2="36.69"/><line class="cls-4" x1="45.43" y1="72.8" x2="45.43" y2="84.01"/><line class="cls-4" x1="45.43" y1="0.19" x2="45.43" y2="11.4"/></g></g></svg>